HIERARCHY
ROOT Hips
{
  OFFSET 5.72205e-005 65.662 3.42586
  CHANNELS 6 Xposition Yposition Zposition Zrotation Xrotation Yrotation
  JOINT Chest
  {
    OFFSET 0 8.7983 -4.7612
    CHANNELS 6 Xposition Yposition Zposition Zrotation Xrotation Yrotation
    JOINT Chest2
    {
      OFFSET 0 8.0291 0.4195
      CHANNELS 6 Xposition Yposition Zposition Zrotation Xrotation Yrotation
      JOINT Chest3
      {
        OFFSET 0 9.9351 -2.2114
        CHANNELS 6 Xposition Yposition Zposition Zrotation Xrotation Yrotation
        JOINT Neck
        {
          OFFSET 0 22.3885 -0.4656
          CHANNELS 6 Xposition Yposition Zposition Zrotation Xrotation Yrotation
          JOINT Head
          {
            OFFSET -0.0001 12.643 3.4389
            CHANNELS 6 Xposition Yposition Zposition Zrotation Xrotation Yrotation
            End Site
            {
              OFFSET 0.0001 17.6655 0.5274
            }
          }
        }
        JOINT LeftCollar
        {
          OFFSET 2.2603 21.606 7.4023
          CHANNELS 6 Xposition Yposition Zposition Zrotation Xrotation Yrotation
          JOINT LeftShoulder
          {
            OFFSET 13.5163 -1.1332 -5.0146
            CHANNELS 6 Xposition Yposition Zposition Zrotation Xrotation Yrotation
            JOINT LeftElbow
            {
              OFFSET -0.0995 -28.05 -0.2431
              CHANNELS 6 Xposition Yposition Zposition Zrotation Xrotation Yrotation
              JOINT LeftWrist
              {
                OFFSET 0.0679 -23.3996 -0.1402
                CHANNELS 6 Xposition Yposition Zposition Zrotation Xrotation Yrotation
                JOINT LeftFinger1
                {
                  OFFSET 0.7932 -9.069 2.5189
                  CHANNELS 6 Xposition Yposition Zposition Zrotation Xrotation Yrotation
                  JOINT LeftFinger11
                  {
                    OFFSET -0.8272 -3.3923 0.5977
                    CHANNELS 6 Xposition Yposition Zposition Zrotation Xrotation Yrotation
                    JOINT LeftFinger12
                    {
                      OFFSET -0.5649 -2.3158 0.4082
                      CHANNELS 6 Xposition Yposition Zposition Zrotation Xrotation Yrotation
                      End Site
                      {
                        OFFSET -0.4919 -1.6479 0.2673
                      }
                    }
                  }
                }
                JOINT LeftFinger2
                {
                  OFFSET 0.9159 -9.2044 0.2193
                  CHANNELS 6 Xposition Yposition Zposition Zrotation Xrotation Yrotation
                  JOINT LeftFinger21
                  {
                    OFFSET 0.0117 -4.1944 -0.0248
                    CHANNELS 6 Xposition Yposition Zposition Zrotation Xrotation Yrotation
                    JOINT LeftFinger22
                    {
                      OFFSET 0.0071 -2.3249 -0.0142
                      CHANNELS 6 Xposition Yposition Zposition Zrotation Xrotation Yrotation
                      End Site
                      {
                        OFFSET -0.1475 -2.0882 0.0028
                      }
                    }
                  }
                }
                JOINT LeftFinger3
                {
                  OFFSET 0.6113 -8.7231 -2.0637
                  CHANNELS 6 Xposition Yposition Zposition Zrotation Xrotation Yrotation
                  JOINT LeftFinger31
                  {
                    OFFSET -0.1927 -3.8059 -0.2383
                    CHANNELS 6 Xposition Yposition Zposition Zrotation Xrotation Yrotation
                    JOINT LeftFinger32
                    {
                      OFFSET -0.1091 -2.1688 -0.1362
                      CHANNELS 6 Xposition Yposition Zposition Zrotation Xrotation Yrotation
                      End Site
                      {
                        OFFSET -0.2358 -1.9176 -0.0906
                      }
                    }
                  }
                }
                JOINT LeftFinger4
                {
                  OFFSET -0.6151 -8.0947 -3.5641
                  CHANNELS 6 Xposition Yposition Zposition Zrotation Xrotation Yrotation
                  JOINT LeftFinger41
                  {
                    OFFSET -0.4882 -2.341 -0.6462
                    CHANNELS 6 Xposition Yposition Zposition Zrotation Xrotation Yrotation
                    JOINT LeftFinger42
                    {
                      OFFSET -0.3575 -1.7167 -0.4742
                      CHANNELS 6 Xposition Yposition Zposition Zrotation Xrotation Yrotation
                      End Site
                      {
                        OFFSET -0.4187 -1.5237 -0.3496
                      }
                    }
                  }
                }
                JOINT LeftFinger0
                {
                  OFFSET -1.42 -1.8761 1.4223
                  CHANNELS 6 Xposition Yposition Zposition Zrotation Xrotation Yrotation
                  JOINT LeftFinger01
                  {
                    OFFSET -1.1471 -3.4929 2.6334
                    CHANNELS 6 Xposition Yposition Zposition Zrotation Xrotation Yrotation
                    JOINT LeftFinger02
                    {
                      OFFSET -0.823 -2.3 1.6571
                      CHANNELS 6 Xposition Yposition Zposition Zrotation Xrotation Yrotation
                      End Site
                      {
                        OFFSET -0.5822 -1.6914 1.1582
                      }
                    }
                  }
                }
              }
            }
          }
        }
        JOINT RightCollar
        {
          OFFSET -2.2603 21.606 7.4023
          CHANNELS 6 Xposition Yposition Zposition Zrotation Xrotation Yrotation
          JOINT RightShoulder
          {
            OFFSET -13.5187 -1.1334 -5.0155
            CHANNELS 6 Xposition Yposition Zposition Zrotation Xrotation Yrotation
            JOINT RightElbow
            {
              OFFSET 0.0994 -28.0499 -0.2431
              CHANNELS 6 Xposition Yposition Zposition Zrotation Xrotation Yrotation
              JOINT RightWrist
              {
                OFFSET -0.0679 -23.3996 -0.1402
                CHANNELS 6 Xposition Yposition Zposition Zrotation Xrotation Yrotation
                JOINT RightFinger1
                {
                  OFFSET -0.7932 -9.0691 2.5189
                  CHANNELS 6 Xposition Yposition Zposition Zrotation Xrotation Yrotation
                  JOINT RightFinger11
                  {
                    OFFSET 0.8272 -3.3923 0.5977
                    CHANNELS 6 Xposition Yposition Zposition Zrotation Xrotation Yrotation
                    JOINT RightFinger12
                    {
                      OFFSET 0.565 -2.3158 0.4082
                      CHANNELS 6 Xposition Yposition Zposition Zrotation Xrotation Yrotation
                      End Site
                      {
                        OFFSET 0.4919 -1.6479 0.2673
                      }
                    }
                  }
                }
                JOINT RightFinger2
                {
                  OFFSET -0.916 -9.2044 0.2193
                  CHANNELS 6 Xposition Yposition Zposition Zrotation Xrotation Yrotation
                  JOINT RightFinger21
                  {
                    OFFSET -0.0117 -4.1944 -0.0248
                    CHANNELS 6 Xposition Yposition Zposition Zrotation Xrotation Yrotation
                    JOINT RightFinger22
                    {
                      OFFSET -0.0071 -2.3249 -0.0142
                      CHANNELS 6 Xposition Yposition Zposition Zrotation Xrotation Yrotation
                      End Site
                      {
                        OFFSET 0.1475 -2.0882 0.0028
                      }
                    }
                  }
                }
                JOINT RightFinger3
                {
                  OFFSET -0.6113 -8.7231 -2.0637
                  CHANNELS 6 Xposition Yposition Zposition Zrotation Xrotation Yrotation
                  JOINT RightFinger31
                  {
                    OFFSET 0.1927 -3.8059 -0.2383
                    CHANNELS 6 Xposition Yposition Zposition Zrotation Xrotation Yrotation
                    JOINT RightFinger32
                    {
                      OFFSET 0.1091 -2.1688 -0.1362
                      CHANNELS 6 Xposition Yposition Zposition Zrotation Xrotation Yrotation
                      End Site
                      {
                        OFFSET 0.2358 -1.9176 -0.0906
                      }
                    }
                  }
                }
                JOINT RightFinger4
                {
                  OFFSET 0.6151 -8.0947 -3.564
                  CHANNELS 6 Xposition Yposition Zposition Zrotation Xrotation Yrotation
                  JOINT RightFinger41
                  {
                    OFFSET 0.4882 -2.341 -0.6462
                    CHANNELS 6 Xposition Yposition Zposition Zrotation Xrotation Yrotation
                    JOINT RightFinger42
                    {
                      OFFSET 0.3574 -1.7166 -0.4742
                      CHANNELS 6 Xposition Yposition Zposition Zrotation Xrotation Yrotation
                      End Site
                      {
                        OFFSET 0.4187 -1.5237 -0.3496
                      }
                    }
                  }
                }
                JOINT RightFinger0
                {
                  OFFSET 1.4199 -1.8761 1.4221
                  CHANNELS 6 Xposition Yposition Zposition Zrotation Xrotation Yrotation
                  JOINT RightFinger01
                  {
                    OFFSET 1.1472 -3.4929 2.6336
                    CHANNELS 6 Xposition Yposition Zposition Zrotation Xrotation Yrotation
                    JOINT RightFinger02
                    {
                      OFFSET 0.8229 -2.3 1.6571
                      CHANNELS 6 Xposition Yposition Zposition Zrotation Xrotation Yrotation
                      End Site
                      {
                        OFFSET 0.5822 -1.6914 1.1582
                      }
                    }
                  }
                }
              }
            }
          }
        }
      }
    }
  }
  JOINT RightHip
  {
    OFFSET -9.412 3.9771 -0.7758
    CHANNELS 6 Xposition Yposition Zposition Zrotation Xrotation Yrotation
    JOINT RightKnee
    {
      OFFSET -0.7531 -40.938 0
      CHANNELS 6 Xposition Yposition Zposition Zrotation Xrotation Yrotation
      JOINT RightAnkle
      {
        OFFSET 0 -40.1986 0
        CHANNELS 6 Xposition Yposition Zposition Zrotation Xrotation Yrotation
        JOINT RightToe
        {
          OFFSET 0 -4.4182 9.239
          CHANNELS 6 Xposition Yposition Zposition Zrotation Xrotation Yrotation
          End Site
          {
            OFFSET 0 0 6.1981
          }
        }
      }
    }
  }
  JOINT LeftHip
  {
    OFFSET 9.4119 3.9773 -0.7758
    CHANNELS 6 Xposition Yposition Zposition Zrotation Xrotation Yrotation
    JOINT LeftKnee
    {
      OFFSET 0.7532 -40.9383 0
      CHANNELS 6 Xposition Yposition Zposition Zrotation Xrotation Yrotation
      JOINT LeftAnkle
      {
        OFFSET 0 -40.1986 0
        CHANNELS 6 Xposition Yposition Zposition Zrotation Xrotation Yrotation
        JOINT LeftToe
        {
          OFFSET 0 -4.4182 9.239
          CHANNELS 6 Xposition Yposition Zposition Zrotation Xrotation Yrotation
          End Site
          {
            OFFSET 0 0 6.1981
          }
        }
      }
    }
  }
}
MOTION
Frames:	4
Frame Time:	0.0333333
5.72205e-005 65.662 3.42586 0 0 -0 0 8.7983 -4.7612 0 0 -0 0 8.0291 0.4195 0 0 -0 0 9.9351 -2.2114 0 0 -0 0 22.3885 -0.4656 0 0 -0 -0.0001 12.643 3.4389 0 0 -0 2.2603 21.606 7.4023 0 0 -12.5014 13.5163 -1.1332 -5.0146 88.1196 14.2451 10.6914 -0.0995 -28.05 -0.2431 -0.00160068 -0.00239207 0.000740045 0.0679 -23.3996 -0.1402 -8.4365e-005 7.00714e-005 -9.52055e-007 0.7932 -9.069 2.5189 9.93923e-017 -1.98785e-016 -1.59028e-015 -0.8272 -3.3923 0.5977 9.93923e-017 -5.96354e-016 -1.59028e-015 -0.5649 -2.3158 0.4082 -9.93923e-017 -5.96354e-016 -1.59028e-015 0.9159 -9.2044 0.2193 9.93923e-017 -1.98785e-016 -1.59028e-015 0.0117 -4.1944 -0.0248 -0.0128176 0.00232552 8.52707e-005 0.0071 -2.3249 -0.0142 9.93923e-017 5.96354e-016 -0 0.6113 -8.7231 -2.0637 9.93923e-017 -1.98785e-016 -1.59028e-015 -0.1927 -3.8059 -0.2383 -0.0160551 0.00299681 0.000857156 -0.1091 -2.1688 -0.1362 -2.48481e-016 0 3.18055e-015 -0.6151 -8.0947 -3.5641 9.93923e-017 -1.98785e-016 -1.59028e-015 -0.4882 -2.341 -0.6462 -0.0125865 0.0031206 0.00282719 -0.3575 -1.7167 -0.4742 0 1.98785e-016 -0 -1.42 -1.8761 1.4223 9.93923e-017 -1.98785e-016 -1.59028e-015 -1.1471 -3.4929 2.6334 9.93923e-017 -5.96354e-016 -1.59028e-015 -0.823 -2.3 1.6571 -9.93923e-017 -5.96354e-016 -1.59028e-015 -2.2603 21.606 7.4023 -0.865644 0.16582 7.03859 -13.5187 -1.1334 -5.0155 -88.0329 10.2057 -10.5567 0.0994 -28.0499 -0.2431 0.0015593 -0.00248883 -0.000788628 -0.0679 -23.3996 -0.1402 7.87605e-005 4.10553e-005 1.24965e-005 -0.7932 -9.0691 2.5189 -3.97569e-016 -7.95139e-016 3.18055e-015 0.8272 -3.3923 0.5977 -1.98785e-016 -3.97569e-016 3.18055e-015 0.565 -2.3158 0.4082 -1.98785e-016 0 3.18055e-015 -0.916 -9.2044 0.2193 -3.97569e-016 -7.95139e-016 3.18055e-015 -0.0117 -4.1944 -0.0248 0.0129473 0.00231697 -8.70038e-005 -0.0071 -2.3249 -0.0142 9.93923e-017 -7.95139e-016 1.59028e-015 -0.6113 -8.7231 -2.0637 -3.97569e-016 -7.95139e-016 3.18055e-015 0.1927 -3.8059 -0.2383 0.0163314 0.00303369 -0.000872333 0.1091 -2.1688 -0.1362 3.97569e-016 7.95139e-016 -3.18055e-015 0.6151 -8.0947 -3.564 -3.97569e-016 -7.95139e-016 3.18055e-015 0.4882 -2.341 -0.6462 0.0145763 0.00367772 -0.00326275 0.3574 -1.7166 -0.4742 9.93923e-017 -3.97569e-016 -0 1.4199 -1.8761 1.4221 -3.97569e-016 -7.95139e-016 3.18055e-015 1.1472 -3.4929 2.6336 -1.98785e-016 -3.97569e-016 3.18055e-015 0.8229 -2.3 1.6571 -1.98785e-016 0 3.18055e-015 -9.412 3.9771 -0.7758 3.42482 1.32465 -0.0626183 -0.7531 -40.938 0 0.000117508 0.717283 0.000978199 0 -40.1986 0 -3.4257 -2.04197 -0.0604716 8.88178e-016 -4.4182 9.239 6.47761e-025 0 -0 9.4119 3.9773 -0.7758 -3.42483 1.34017 0.0627307 0.7532 -40.9383 -2.22045e-016 -0.000193936 0.682302 -0.0013703 -8.88179e-016 -40.1986 0 3.42574 -2.02253 0.0595886 -8.88178e-016 -4.4182 9.239 -8.45714e-024 0 -7.40531e-025 
-0.803028 22.5588 -35.5687 -0.0107334 53.3309 0.0161053 0 8.7983 -4.7612 -0.0893683 5.67494 -0.0656613 0 8.0291 0.4195 -0.17345 11.35 -0.123291 -1.11022e-016 9.9351 -2.2114 -0.173451 11.35 -0.123291 2.22045e-016 22.3885 -0.4656 4.6353e-007 -31.2748 2.59347e-007 -0.0001 12.643 3.4389 -3.2799e-008 2.37947 -1.44638e-007 2.2603 21.606 7.4023 -0.651389 -13.307 3.02782 13.5163 -1.1332 -5.0146 92.3019 -34.318 12.0653 -0.0995 -28.05 -0.2431 11.9149 -32.6177 11.6483 0.0679 -23.3996 -0.1402 41.589 1.5414 6.29814 0.7932 -9.069 2.5189 7.95139e-016 -6.36111e-015 -7.95139e-016 -0.8272 -3.3923 0.5977 2.0394e-006 -2.53495e-006 3.68288e-006 -0.5649 -2.3158 0.4082 7.95139e-016 0 1.59028e-015 0.9159 -9.2044 0.2193 7.95139e-016 -6.36111e-015 -7.95139e-016 0.0117 -4.1944 -0.0248 -0.0127991 0.00232666 9.14221e-005 0.0071 -2.3249 -0.0142 1.59028e-015 -3.18055e-015 2.38542e-015 0.6113 -8.7231 -2.0637 7.95139e-016 -6.36111e-015 -7.95139e-016 -0.1927 -3.8059 -0.2383 -0.0160461 0.00299346 0.000860908 -0.1091 -2.1688 -0.1362 7.95139e-016 3.18055e-015 7.95139e-016 -0.6151 -8.0947 -3.5641 7.95139e-016 -6.36111e-015 -7.95139e-016 -0.4882 -2.341 -0.6462 -0.0125741 0.00312444 0.00282486 -0.3575 -1.7167 -0.4742 -1.59028e-015 0 -1.19271e-015 -1.42 -1.8761 1.4223 7.95139e-016 -6.36111e-015 -7.95139e-016 -1.1471 -3.4929 2.6334 2.0394e-006 -2.53495e-006 3.68288e-006 -0.823 -2.3 1.6571 7.95139e-016 0 1.59028e-015 -2.2603 21.606 7.4023 -0.456332 -13.323 -7.49407 -13.5187 -1.1334 -5.0155 -89.8974 -37.0009 -10.8496 0.0994 -28.0499 -0.2431 -16.3645 -38.0742 -15.6577 -0.0679 -23.3996 -0.1402 -41.475 5.01433 -1.89779 -0.7932 -9.0691 2.5189 -7.95139e-016 0 7.95139e-016 0.8272 -3.3923 0.5977 -3.08973e-031 3.18055e-015 5.56597e-015 0.565 -2.3158 0.4082 7.95139e-016 0 1.98785e-015 -0.916 -9.2044 0.2193 -7.95139e-016 0 7.95139e-016 -0.0117 -4.1944 -0.0248 0.0129545 0.00230501 -7.40369e-005 -0.0071 -2.3249 -0.0142 -3.97569e-015 0 -2.78299e-015 -0.6113 -8.7231 -2.0637 -7.95139e-016 0 7.95139e-016 0.1927 -3.8059 -0.2383 0.0163185 0.00303067 -0.000863003 0.1091 -2.1688 -0.1362 2.20695e-032 3.18055e-015 -3.97569e-016 0.6151 -8.0947 -3.564 -7.95139e-016 0 7.95139e-016 0.4882 -2.341 -0.6462 0.0145922 0.00367667 -0.00326447 0.3574 -1.7166 -0.4742 -7.95139e-016 0 2.38542e-015 1.4199 -1.8761 1.4221 -7.95139e-016 0 7.95139e-016 1.1472 -3.4929 2.6336 -3.08973e-031 3.18055e-015 5.56597e-015 0.8229 -2.3 1.6571 7.95139e-016 0 1.98785e-015 -9.412 3.9771 -0.7758 -26.8245 -21.9101 -42.9016 -0.7531 -40.938 -3.55271e-015 -29.0869 53.8107 -5.53221 8.88178e-016 -40.1986 3.55271e-015 -10.5479 29.1346 17.8418 0 -4.4182 9.239 -8.17589e-006 1.60783e-006 5.00527e-006 9.4119 3.9773 -0.7758 26.8201 -21.91 42.8825 0.7532 -40.9383 0 29.0635 53.8145 5.54539 8.88178e-016 -40.1986 0 10.5302 29.1446 -17.8211 -1.77636e-015 -4.4182 9.239 2.82099e-006 6.30516e-006 -1.91937e-006 
-1.16527 5.53948 -51.9417 -0.0588664 77.3298 0.0635825 -2.22045e-016 8.7983 -4.7612 -0.106884 8.20025 -0.119235 0 8.0291 0.4195 -0.199435 16.4008 -0.226365 2.22045e-016 9.9351 -2.2114 -0.199435 16.4008 -0.226365 2.22045e-016 22.3885 -0.4656 1.92367e-006 -44.5481 1.43914e-006 -0.0001 12.643 3.4389 -1.10201e-007 2.66905 6.44159e-008 2.2603 21.606 7.4023 1.42233 -18.4277 10.7138 13.5163 -1.1332 -5.0146 91.7242 -56.1272 10.7888 -0.0995 -28.05 -0.2431 16.2862 -47.1338 15.2919 0.0679 -23.3996 -0.1402 59.9656 3.44111 10.3724 0.7932 -9.069 2.5189 6.36111e-015 -3.18055e-015 -1.59028e-015 -0.8272 -3.3923 0.5977 3.18055e-015 -1.59028e-015 -0 -0.5649 -2.3158 0.4082 -4.41391e-032 3.18055e-015 7.95139e-016 0.9159 -9.2044 0.2193 6.36111e-015 -3.18055e-015 -1.59028e-015 0.0117 -4.1944 -0.0248 -0.0128167 0.00231828 7.90696e-005 0.0071 -2.3249 -0.0142 -1.76556e-031 1.59028e-015 6.36111e-015 0.6113 -8.7231 -2.0637 6.36111e-015 -3.18055e-015 -1.59028e-015 -0.1927 -3.8059 -0.2383 -0.0160772 0.00300176 0.00084547 -0.1091 -2.1688 -0.1362 5.52038e-006 7.20774e-006 9.41858e-006 -0.6151 -8.0947 -3.5641 6.36111e-015 -3.18055e-015 -1.59028e-015 -0.4882 -2.341 -0.6462 -0.0125844 0.00312521 0.00282196 -0.3575 -1.7167 -0.4742 6.62086e-032 -1.59028e-015 2.38542e-015 -1.42 -1.8761 1.4223 6.36111e-015 -3.18055e-015 -1.59028e-015 -1.1471 -3.4929 2.6334 3.18055e-015 -1.59028e-015 -0 -0.823 -2.3 1.6571 -4.41391e-032 3.18055e-015 7.95139e-016 -2.2603 21.606 7.4023 -2.52256 -18.6142 -14.6806 -13.5187 -1.1334 -5.0155 -90.1832 -58.4157 -10.5687 0.0994 -28.0499 -0.2431 -22.2538 -54.7542 -20.2514 -0.0679 -23.3996 -0.1402 -59.5039 8.64379 -3.81246 -0.7932 -9.0691 2.5189 6.36111e-015 -4.77083e-015 7.95139e-016 0.8272 -3.3923 0.5977 -4.41391e-032 -3.18055e-015 -7.95139e-016 0.565 -2.3158 0.4082 3.18055e-015 -3.18055e-015 -7.95139e-016 -0.916 -9.2044 0.2193 6.36111e-015 -4.77083e-015 7.95139e-016 -0.0117 -4.1944 -0.0248 0.0129993 0.00232197 -8.87073e-005 -0.0071 -2.3249 -0.0142 3.18055e-015 -3.18055e-015 7.95139e-016 -0.6113 -8.7231 -2.0637 6.36111e-015 -4.77083e-015 7.95139e-016 0.1927 -3.8059 -0.2383 0.0163572 0.0030513 -0.000882106 0.1091 -2.1688 -0.1362 -7.50737e-006 -4.59202e-006 7.33002e-006 0.6151 -8.0947 -3.564 6.36111e-015 -4.77083e-015 7.95139e-016 0.4882 -2.341 -0.6462 0.0146184 0.00369199 -0.00326869 0.3574 -1.7166 -0.4742 -6.36111e-015 0 7.95139e-016 1.4199 -1.8761 1.4221 6.36111e-015 -4.77083e-015 7.95139e-016 1.1472 -3.4929 2.6336 -4.41391e-032 -3.18055e-015 -7.95139e-016 0.8229 -2.3 1.6571 3.18055e-015 -3.18055e-015 -7.95139e-016 -9.412 3.9771 -0.7758 -49.9445 -23.2679 -64.9561 -0.7531 -40.938 0 -30.5312 73.3227 -16.6135 0 -40.1986 -7.10543e-015 -25.712 42.2955 32.6572 3.55271e-015 -4.4182 9.239 -2.84633e-006 2.97627e-006 -5.14151e-006 9.4119 3.9773 -0.7758 49.9365 -23.2764 64.9301 0.7532 -40.9383 7.10543e-015 30.4732 73.3259 16.6549 0 -40.1986 7.10543e-015 25.6822 42.3168 -32.6279 -3.55271e-015 -4.4182 9.239 6.46867e-006 -2.71655e-007 -1.99992e-006 
-1.08475 9.33347 -48.4732 -0.0370044 71.9967 0.0420106 -2.22045e-016 8.7983 -4.7612 -0.104618 7.57613 -0.106424 0 8.0291 0.4195 -0.197522 15.1525 -0.201429 2.22045e-016 9.9351 -2.2114 -0.197523 15.1525 -0.201429 -2.22045e-016 22.3885 -0.4656 1.52948e-006 -39.8182 1.07411e-006 -0.0001 12.643 3.4389 1.68738e-007 0.867357 -4.4401e-009 2.2603 21.606 7.4023 0.707107 -17.1949 9.08447 13.5163 -1.1332 -5.0146 92.1661 -51.2892 11.3673 -0.0995 -28.05 -0.2431 15.4381 -43.9257 14.6308 0.0679 -23.3996 -0.1402 55.9091 2.9358 9.42315 0.7932 -9.069 2.5189 -1.59028e-015 0 -0 -0.8272 -3.3923 0.5977 -4.77083e-015 3.18055e-015 7.95139e-016 -0.5649 -2.3158 0.4082 -7.95139e-015 -4.77083e-015 -3.18055e-015 0.9159 -9.2044 0.2193 -1.59028e-015 0 -0 0.0117 -4.1944 -0.0248 -0.0128282 0.00232678 9.5783e-005 0.0071 -2.3249 -0.0142 -1.59028e-015 -1.59028e-015 7.95139e-016 0.6113 -8.7231 -2.0637 -1.59028e-015 0 -0 -0.1927 -3.8059 -0.2383 -0.0160332 0.00300572 0.000862327 -0.1091 -2.1688 -0.1362 4.77083e-015 3.18055e-015 -1.59028e-015 -0.6151 -8.0947 -3.5641 -1.59028e-015 0 -0 -0.4882 -2.341 -0.6462 -0.0126318 0.00314383 0.00284258 -0.3575 -1.7167 -0.4742 3.18055e-015 -6.36111e-015 1.19271e-014 -1.42 -1.8761 1.4223 -1.59028e-015 0 -0 -1.1471 -3.4929 2.6334 -4.77083e-015 3.18055e-015 7.95139e-016 -0.823 -2.3 1.6571 -7.95139e-015 -4.77083e-015 -3.18055e-015 -2.2603 21.606 7.4023 -1.81365 -17.3153 -13.1093 -13.5187 -1.1334 -5.0155 -89.9863 -53.5211 -10.5296 0.0994 -28.0499 -0.2431 -21.3276 -51.2193 -19.5781 -0.0679 -23.3996 -0.1402 -55.5428 7.74974 -3.35291 -0.7932 -9.0691 2.5189 -1.59028e-015 -1.59028e-015 -0 0.8272 -3.3923 0.5977 -1.59028e-015 -3.18055e-015 7.95139e-016 0.565 -2.3158 0.4082 -3.18055e-015 -6.36111e-015 1.59028e-015 -0.916 -9.2044 0.2193 -1.59028e-015 -1.59028e-015 -0 -0.0117 -4.1944 -0.0248 0.0129771 0.00233399 -9.66964e-005 -0.0071 -2.3249 -0.0142 3.18055e-015 0 -1.19271e-014 -0.6113 -8.7231 -2.0637 -1.59028e-015 -1.59028e-015 -0 0.1927 -3.8059 -0.2383 0.0163297 0.00304707 -0.000876077 0.1091 -2.1688 -0.1362 -2.56186e-006 2.58922e-006 -1.04191e-007 0.6151 -8.0947 -3.564 -1.59028e-015 -1.59028e-015 -0 0.4882 -2.341 -0.6462 0.0145496 0.00367982 -0.00326818 0.3574 -1.7166 -0.4742 -4.77083e-015 1.59028e-015 -0 1.4199 -1.8761 1.4221 -1.59028e-015 -1.59028e-015 -0 1.1472 -3.4929 2.6336 -1.59028e-015 -3.18055e-015 7.95139e-016 0.8229 -2.3 1.6571 -3.18055e-015 -6.36111e-015 1.59028e-015 -9.412 3.9771 -0.7758 -44.6393 -23.86 -60.1945 -0.7531 -40.938 -7.10543e-015 -32.0752 69.2214 -12.3234 -3.55271e-015 -40.1986 0 -21.3882 39.6675 28.6656 -3.55271e-015 -4.4182 9.239 1.4389e-005 2.72621e-006 -5.2746e-006 9.4119 3.9773 -0.7758 44.6311 -23.8663 60.1695 0.7532 -40.9383 0 32.0296 69.2251 12.3536 3.55271e-015 -40.1986 0 21.3604 39.6859 -28.6371 -3.55271e-015 -4.4182 9.239 1.4626e-006 -5.87138e-007 2.07178e-006 
